<?xml version="1.0" standalone="no"?><!DOCTYPE svg PUBLIC "-//W3C//DTD SVG 1.1//EN" "http://www.w3.org/Graphics/SVG/1.1/DTD/svg11.dtd"><svg t="1747271613952" class="icon" viewBox="0 0 1024 1024" version="1.1" xmlns="http://www.w3.org/2000/svg" p-id="18435" xmlns:xlink="http://www.w3.org/1999/xlink" width="200" height="200"><path d="M512 512m-512 0a512 512 0 1 0 1024 0 512 512 0 1 0-1024 0Z" fill="#33C7FC" p-id="18436"></path><path d="M324.408781 655.018925C505.290126 655.018925 651.918244 508.387706 651.918244 327.509463c0-152.138029-103.733293-280.047334-244.329811-316.853972C205.813923 52.463528 47.497011 213.017581 8.987325 415.981977 47.587706 553.880127 174.183098 655.018925 324.408781 655.018925z" fill="#FFFFFF" fill-opacity=".2" p-id="18437"></path><path d="M512 1024c282.766631 0 512-229.233369 512-512 0-31.765705-2.891385-62.853911-8.433853-93.018889C928.057169 336.0999 809.874701 285.26268 679.824375 285.26268c-269.711213 0-488.357305 218.645317-488.357305 488.357305 0 54.959576 9.084221 107.802937 25.822474 157.10377C300.626556 989.489417 402.283167 1024 512 1024z" fill="#FFFFFF" fill-opacity=".15" p-id="18438"></path><path d="M732.535958 756.566238c36.389596 0 65.889478-29.499882 65.889477-65.889478 0 36.389596 29.502983 65.889478 65.889478 65.889478-17.053747 0-65.889478 29.502983-65.889478 65.889477 0-36.386495-29.499882-65.889478-65.889477-65.889477zM159.685087 247.279334c25.686819 0 46.51022-20.8234 46.51022-46.51022 0 25.686819 20.8234 46.51022 46.510219 46.51022-12.03607 0-46.51022 20.8234-46.510219 46.510219 0-25.686819-20.8234-46.51022-46.51022-46.510219z" fill="#FFFFFF" fill-opacity=".5" p-id="18439"></path><path d="M206.195307 333.32324c8.562531 0 15.503407-6.940875 15.503406-15.503407 0 8.562531 6.940875 15.503407 15.503407 15.503407-4.012282 0-15.503407 6.940875-15.503407 15.503406 0-8.562531-6.940875-15.503407-15.503406-15.503406z" fill="#FFFFFF" fill-opacity=".3" p-id="18440"></path><path d="M272.084784 361.616957c0-15.777042 10.589602-29.590577 25.82635-33.686577l238.75246-64.187204C558.824939 257.785217 580.602574 274.481611 580.602574 297.429753V729.435276c0 19.265308-15.617357 34.882665-34.882665 34.882665H306.967449c-19.265308 0-34.882665-15.617357-34.882665-34.882665V361.616957zM598.431491 473.334504c0-20.966807 20.376127-35.888836 40.365445-29.56112l92.245268 29.203767C743.930961 477.057647 752.690386 489.018525 752.690386 502.537496V733.311128c0 17.124288-13.882525 31.006813-31.006813 31.006813H629.438304c-17.124288 0-31.006813-13.882525-31.006813-31.006813V473.334504z" fill="#FFFFFF" p-id="18441"></path><path d="M341.850114 421.692657m15.890991 0l144.956851 0q15.890992 0 15.890992 15.890992l0 0q0 15.890992-15.890992 15.890991l-144.956851 0q-15.890992 0-15.890991-15.890991l0 0q0-15.890992 15.890991-15.890992Z" fill="#51CFFC" p-id="18442"></path><path d="M341.850114 530.991673m15.890991 0l144.956851 0q15.890992 0 15.890992 15.890992l0 0q0 15.890992-15.890992 15.890991l-144.956851 0q-15.890992 0-15.890991-15.890991l0 0q0-15.890992 15.890991-15.890992Z" fill="#51CFFC" p-id="18443"></path><path d="M341.850114 640.290689m15.890991 0l144.956851 0q15.890992 0 15.890992 15.890992l0 0q0 15.890992-15.890992 15.890991l-144.956851 0q-15.890992 0-15.890991-15.890991l0 0q0-15.890992 15.890991-15.890992Z" fill="#51CFFC" p-id="18444"></path></svg>