<?xml version="1.0" standalone="no"?><!DOCTYPE svg PUBLIC "-//W3C//DTD SVG 1.1//EN" "http://www.w3.org/Graphics/SVG/1.1/DTD/svg11.dtd"><svg t="1747271590908" class="icon" viewBox="0 0 1024 1024" version="1.1" xmlns="http://www.w3.org/2000/svg" p-id="15437" xmlns:xlink="http://www.w3.org/1999/xlink" width="200" height="200"><path d="M679.3 753.1H446.2c-68.4 0-124.4-56-124.4-124.4V267.9c0-68.4 56-124.4 124.4-124.4h233.1c68.4 0 124.4 56 124.4 124.4v360.7c0.1 68.5-55.9 124.5-124.4 124.5z" fill="#285399" p-id="15438"></path><path d="M562.1 753.1h-129c-68.4 0-124.4-56-124.4-124.4V267.9c0-68.4 56-124.4 124.4-124.4h129c68.4 0 124.4 56 124.4 124.4v360.7c0.1 68.5-55.9 124.5-124.4 124.5z" fill="#3268CF" p-id="15439"></path><path d="M355 278.6c-7.5 0-14-5.6-14.9-13.3 0-0.4-0.1-0.8-0.1-1.2-0.8-8.2 5.3-15.6 13.5-16.4 8.3-0.8 15.6 5.3 16.4 13.5 0 0.2 0 0.5 0.1 0.7 0.9 8.2-5 15.7-13.2 16.6-0.7 0.1-1.2 0.1-1.8 0.1zM370.6 235.5c-2.6 0-5.2-0.7-7.5-2-7.2-4.2-9.6-13.3-5.4-20.5 12.4-21.4 33-34.1 33.9-34.7 7.1-4.3 16.3-2.1 20.6 5 4.3 7.1 2.1 16.3-4.9 20.6-0.3 0.2-15.1 9.5-23.6 24.2-2.9 4.8-7.9 7.4-13.1 7.4z" fill="#FFFFFF" p-id="15440"></path><path d="M810.5 768.1H246.7c-8.3 0-15-6.7-15-15s6.7-15 15-15h563.8c8.3 0 15 6.7 15 15s-6.7 15-15 15zM210.3 768.1h-24.8c-8.3 0-15-6.7-15-15s6.7-15 15-15h24.8c8.3 0 15 6.7 15 15s-6.7 15-15 15z" fill="#1A1A1A" p-id="15441"></path><path d="M551.1 737.9H442.2c-12.5 0-22.8-10.2-22.8-22.8V608.8c0-12.5 10.2-22.8 22.8-22.8h108.9c12.5 0 22.8 10.2 22.8 22.8v106.4c-0.1 12.5-10.3 22.7-22.8 22.7z" fill="#FFFFFF" p-id="15442"></path><path d="M251.6 595.2c-8.3 0-15-6.7-15-15V361.3c0-8.3 6.7-15 15-15s15 6.7 15 15v218.8c0 8.4-6.7 15.1-15 15.1zM623.8 768.1H373.2c-75.3 0-136.6-61.3-136.6-136.6 0-8.3 6.7-15 15-15s15 6.7 15 15c0 58.8 47.8 106.6 106.6 106.6h250.6c58.8 0 106.6-47.8 106.6-106.6V500.1c0-8.3 6.7-15 15-15s15 6.7 15 15v131.5c0 75.2-61.3 136.5-136.6 136.5zM745.4 472.1c-8.3 0-15-6.7-15-15v-21.5c0-8.3 6.7-15 15-15s15 6.7 15 15v21.5c0 8.3-6.8 15-15 15zM745.4 395.9c-8.3 0-15-6.7-15-15V265.1c0-58.8-47.8-106.6-106.6-106.6H373.2c-58.8 0-106.6 47.8-106.6 106.6v33.8c0 8.3-6.7 15-15 15s-15-6.7-15-15v-33.8c0-75.3 61.3-136.6 136.6-136.6h250.6c75.3 0 136.6 61.3 136.6 136.6v115.8c0 8.3-6.8 15-15 15z" fill="#1A1A1A" p-id="15443"></path><path d="M447.8 350.9h-74.2c-8.3 0-15-6.7-15-15s6.7-15 15-15h74.2c8.3 0 15 6.7 15 15s-6.7 15-15 15zM611.9 350.9h-74.2c-8.3 0-15-6.7-15-15s6.7-15 15-15h74.2c8.3 0 15 6.7 15 15s-6.7 15-15 15zM447.8 438.9h-74.2c-8.3 0-15-6.7-15-15s6.7-15 15-15h74.2c8.3 0 15 6.7 15 15s-6.7 15-15 15zM611.9 438.9h-74.2c-8.3 0-15-6.7-15-15s6.7-15 15-15h74.2c8.3 0 15 6.7 15 15s-6.7 15-15 15zM447.8 523.9h-74.2c-8.3 0-15-6.7-15-15s6.7-15 15-15h74.2c8.3 0 15 6.7 15 15 0 8.2-6.7 15-15 15zM611.9 523.9h-74.2c-8.3 0-15-6.7-15-15s6.7-15 15-15h74.2c8.3 0 15 6.7 15 15 0 8.2-6.7 15-15 15z" fill="#FFFFFF" p-id="15444"></path><path d="M987.5 854.1h-20.4c-8.3 0-15-6.7-15-15s6.7-15 15-15h20.4c8.3 0 15 6.7 15 15s-6.7 15-15 15zM917.5 854.1H484.3c-8.3 0-15-6.7-15-15s6.7-15 15-15h433.2c8.3 0 15 6.7 15 15s-6.7 15-15 15z" fill="#1A1A1A" p-id="15445"></path><path d="M515.9 854.1H253.5c-8.3 0-15-6.7-15-15s6.7-15 15-15h262.4c8.3 0 15 6.7 15 15s-6.7 15-15 15zM154.5 854.1H36.8c-8.3 0-15-6.7-15-15s6.7-15 15-15h117.7c8.3 0 15 6.7 15 15s-6.7 15-15 15z" fill="#1A1A1A" p-id="15446"></path><path d="M54.3 283.8c-0.8 0-1.5-0.7-1.5-1.5v-38.7c0-0.8 0.7-1.5 1.5-1.5s1.5 0.7 1.5 1.5v38.7c0 0.8-0.7 1.5-1.5 1.5z" fill="#F74E00" p-id="15447"></path><path d="M42.2 278.4c-0.4 0-0.7-0.1-1-0.4-0.6-0.6-0.7-1.5-0.1-2.1l25.1-27.4c0.6-0.6 1.5-0.7 2.1-0.1 0.6 0.6 0.7 1.5 0.1 2.1l-25.1 27.4c-0.3 0.3-0.7 0.5-1.1 0.5z" fill="#F74E00" p-id="15448"></path><path d="M67.4 278.1c-0.4 0-0.8-0.2-1.1-0.5l-25.1-27.4c-0.6-0.6-0.5-1.6 0.1-2.1 0.6-0.6 1.6-0.5 2.1 0.1l25.1 27.4c0.6 0.6 0.5 1.6-0.1 2.1-0.3 0.3-0.6 0.4-1 0.4z" fill="#F74E00" p-id="15449"></path><path d="M72 264.4H36.5c-0.8 0-1.5-0.7-1.5-1.5s0.7-1.5 1.5-1.5H72c0.8 0 1.5 0.7 1.5 1.5s-0.6 1.5-1.5 1.5z" fill="#F74E00" p-id="15450"></path><path d="M120.5 445.6h-7.4c-1.4 0-2.5-1.1-2.5-2.5s1.1-2.5 2.5-2.5h7.4c1.4 0 2.5 1.1 2.5 2.5s-1.1 2.5-2.5 2.5zM96.7 445.6h-7.4c-1.4 0-2.5-1.1-2.5-2.5s1.1-2.5 2.5-2.5h7.4c1.4 0 2.5 1.1 2.5 2.5s-1.1 2.5-2.5 2.5zM99 439.4c-0.7 0-1.3-0.3-1.8-0.8l-5.3-5.7c-0.9-1-0.9-2.6 0.2-3.5 1-0.9 2.6-0.9 3.5 0.2l5.3 5.7c0.9 1 0.9 2.6-0.2 3.5-0.5 0.4-1.1 0.6-1.7 0.6zM117.1 457.8c-0.7 0-1.3-0.3-1.8-0.8l-5.3-5.7c-0.9-1-0.9-2.6 0.2-3.5s2.6-0.9 3.5 0.2l5.3 5.7c0.9 1 0.9 2.6-0.2 3.5-0.5 0.4-1.1 0.6-1.7 0.6zM111.8 438.9c-0.6 0-1.2-0.2-1.7-0.7-1-0.9-1.1-2.5-0.2-3.5l5.3-5.7c0.9-1 2.5-1.1 3.5-0.2 1 0.9 1.1 2.5 0.2 3.5l-5.3 5.7c-0.4 0.6-1.1 0.9-1.8 0.9zM105.2 438.7c-1.4 0-2.5-1.1-2.5-2.5v-8.1c0-1.4 1.1-2.5 2.5-2.5s2.5 1.1 2.5 2.5v8.1c0 1.4-1.1 2.5-2.5 2.5zM105.2 461.8c-1.4 0-2.5-1.1-2.5-2.5v-8.1c0-1.4 1.1-2.5 2.5-2.5s2.5 1.1 2.5 2.5v8.1c0 1.4-1.1 2.5-2.5 2.5zM94 457.7c-0.6 0-1.2-0.2-1.7-0.7-1-0.9-1.1-2.5-0.2-3.5l5.3-5.7c0.9-1 2.5-1.1 3.5-0.2 1 0.9 1.1 2.5 0.2 3.5l-5.3 5.7c-0.5 0.6-1.2 0.9-1.8 0.9z" fill="#42DA56" p-id="15451"></path><path d="M132.1 244.1H128c-3.1 0-5.7-2.5-5.7-5.7v-1c0-3.1 2.5-5.7 5.7-5.7h4.2c3.1 0 5.7 2.5 5.7 5.7v1c-0.1 3.2-2.7 5.7-5.8 5.7z" fill="#3268CF" p-id="15452"></path><path d="M90.6 566.1c-2.5 0-4.5-2-4.5-4.5v-0.8c0-2.5 2-4.5 4.5-4.5s4.5 2 4.5 4.5v0.8c-0.1 2.5-2.1 4.5-4.5 4.5z" fill="#F74E00" p-id="15453"></path><path d="M57.1 374.1c-7.3 0-13.2-6-13.2-13.2v-2.4c0-7.3 6-13.2 13.2-13.2 7.3 0 13.2 6 13.2 13.2v2.4c0 7.2-5.9 13.2-13.2 13.2z" fill="#42DA56" p-id="15454"></path><path d="M965.2 419.8H959c-5.4 0-9.8-4.4-9.8-9.8v-1.3c0-5.4 4.4-9.8 9.8-9.8h6.2c5.4 0 9.8 4.4 9.8 9.8v1.3c0 5.4-4.4 9.8-9.8 9.8z m-6.2-15.9c-2.6 0-4.8 2.2-4.8 4.8v1.3c0 2.6 2.2 4.8 4.8 4.8h6.2c2.6 0 4.8-2.2 4.8-4.8v-1.3c0-2.6-2.2-4.8-4.8-4.8H959z" fill="#42DA56" p-id="15455"></path><path d="M915.6 350c-0.8 0-1.5-0.7-1.5-1.5v-23.4c0-0.8 0.7-1.5 1.5-1.5s1.5 0.7 1.5 1.5v23.4c0 0.8-0.7 1.5-1.5 1.5z" fill="#0000FF" p-id="15456"></path><path d="M908.3 346.7c-0.4 0-0.7-0.1-1-0.4-0.6-0.6-0.7-1.5-0.1-2.1l15.2-16.6c0.6-0.6 1.5-0.7 2.1-0.1 0.6 0.6 0.7 1.5 0.1 2.1l-15.2 16.6c-0.3 0.4-0.7 0.5-1.1 0.5z" fill="#0000FF" p-id="15457"></path><path d="M923.5 346.6c-0.4 0-0.8-0.2-1.1-0.5l-15.2-16.6c-0.6-0.6-0.5-1.6 0.1-2.1 0.6-0.6 1.6-0.5 2.1 0.1l15.2 16.6c0.6 0.6 0.5 1.6-0.1 2.1-0.3 0.2-0.6 0.4-1 0.4z" fill="#0000FF" p-id="15458"></path><path d="M926.3 338.3h-21.5c-0.8 0-1.5-0.7-1.5-1.5s0.7-1.5 1.5-1.5h21.5c0.8 0 1.5 0.7 1.5 1.5s-0.7 1.5-1.5 1.5z" fill="#0000FF" p-id="15459"></path><path d="M967.8 506.2h-7.4c-1.4 0-2.5-1.1-2.5-2.5s1.1-2.5 2.5-2.5h7.4c1.4 0 2.5 1.1 2.5 2.5s-1.2 2.5-2.5 2.5zM944 506.2h-7.4c-1.4 0-2.5-1.1-2.5-2.5s1.1-2.5 2.5-2.5h7.4c1.4 0 2.5 1.1 2.5 2.5s-1.2 2.5-2.5 2.5zM946.2 500.1c-0.7 0-1.3-0.3-1.8-0.8l-5.3-5.7c-0.9-1-0.9-2.6 0.2-3.5s2.6-0.9 3.5 0.2l5.3 5.7c0.9 1 0.9 2.6-0.2 3.5-0.4 0.4-1.1 0.6-1.7 0.6zM964.3 518.5c-0.7 0-1.3-0.3-1.8-0.8l-5.3-5.7c-0.9-1-0.9-2.6 0.2-3.5 1-0.9 2.6-0.9 3.5 0.2l5.3 5.7c0.9 1 0.9 2.6-0.2 3.5-0.5 0.3-1.1 0.6-1.7 0.6zM959 499.6c-0.6 0-1.2-0.2-1.7-0.7-1-0.9-1.1-2.5-0.2-3.5l5.3-5.7c0.9-1 2.5-1.1 3.5-0.2 1 0.9 1.1 2.5 0.2 3.5l-5.3 5.7c-0.4 0.6-1.1 0.9-1.8 0.9zM952.4 499.3c-1.4 0-2.5-1.1-2.5-2.5v-8.1c0-1.4 1.1-2.5 2.5-2.5s2.5 1.1 2.5 2.5v8.1c0 1.4-1.1 2.5-2.5 2.5zM952.4 522.4c-1.4 0-2.5-1.1-2.5-2.5v-8.1c0-1.4 1.1-2.5 2.5-2.5s2.5 1.1 2.5 2.5v8.1c0 1.4-1.1 2.5-2.5 2.5zM941.2 518.3c-0.6 0-1.2-0.2-1.7-0.7-1-0.9-1.1-2.5-0.2-3.5l5.3-5.7c0.9-1 2.5-1.1 3.5-0.2 1 0.9 1.1 2.5 0.2 3.5l-5.3 5.7c-0.5 0.7-1.1 0.9-1.8 0.9z" fill="#F74E00" p-id="15460"></path><path d="M904.2 588.1h-4.3c-1.2 0-2.1-1-2.1-2.1v-0.4c0-1.2 1-2.1 2.1-2.1h4.3c1.2 0 2.1 1 2.1 2.1v0.4c0 1.1-0.9 2.1-2.1 2.1z" fill="#3268CF" p-id="15461"></path><path d="M905.4 472.8h-9.3c-4 0-7.2-3.2-7.2-7.2v-0.8c0-4 3.2-7.2 7.2-7.2h9.3c4 0 7.2 3.2 7.2 7.2v0.8c0 3.9-3.2 7.2-7.2 7.2z m-9.3-10.2c-1.2 0-2.2 1-2.2 2.2v0.8c0 1.2 1 2.2 2.2 2.2h9.3c1.2 0 2.2-1 2.2-2.2v-0.8c0-1.2-1-2.2-2.2-2.2h-9.3z" fill="#F74E00" p-id="15462"></path><path d="M893.9 260.3a5.7 6.3 0 1 0 11.4 0 5.7 6.3 0 1 0-11.4 0Z" fill="#3268CF" p-id="15463"></path></svg>