<?xml version="1.0" standalone="no"?><!DOCTYPE svg PUBLIC "-//W3C//DTD SVG 1.1//EN" "http://www.w3.org/Graphics/SVG/1.1/DTD/svg11.dtd"><svg t="1747271569625" class="icon" viewBox="0 0 1024 1024" version="1.1" xmlns="http://www.w3.org/2000/svg" p-id="12345" xmlns:xlink="http://www.w3.org/1999/xlink" width="200" height="200"><path d="M72.020256 225.62087h277.156949v718.175033H72.020256z" fill="#5199ED" p-id="12346"></path><path d="M972.807987 0h-614.402457A51.204301 51.204301 0 0 0 307.201229 51.204301V153.600614H51.204301A51.204301 51.204301 0 0 0 0 204.804915v768.003072a51.179725 51.179725 0 0 0 51.204301 51.192013h921.603686a51.167437 51.167437 0 0 0 51.192013-51.192013v-921.603686A51.204301 51.204301 0 0 0 972.807987 0zM102.396314 460.801843H307.201229v102.396314H102.396314V460.801843zM307.201229 255.996928v102.408602H102.396314v-102.408602H307.201229zM102.396314 665.606758H307.201229V921.603686H102.396314V665.606758zM614.402458 921.603686v-102.408601h102.384025V921.603686H614.402458z" fill="#E6E6E6" p-id="12347"></path><path d="M512.006144 153.600614H638.978556v102.384026H512.006144zM716.798771 153.600614h126.9847v102.384026H716.798771zM512.006144 358.40553H638.978556v102.408601H512.006144zM716.798771 358.40553h126.9847v102.408601H716.798771zM512.006144 563.198157H638.978556v102.408601H512.006144zM716.798771 563.198157h126.9847v102.408601H716.798771z" fill="#5199ED" p-id="12348"></path><path d="M567.46211 777.90724h211.968848v246.080472H567.46211z" fill="#567794" p-id="12349"></path><path d="M303.109308 921.603686H102.396314V665.606758h200.700706v-102.408601H102.396314V460.801843h200.700706v-102.408601H102.396314v-102.408602h200.700706V153.600614h-251.905007A51.204301 51.204301 0 0 0 0 204.804915v768.003072a51.179725 51.179725 0 0 0 51.204301 51.192013h251.905007V921.603686z" fill="#C9C9C9" p-id="12350"></path></svg>