<?xml version="1.0" standalone="no"?><!DOCTYPE svg PUBLIC "-//W3C//DTD SVG 1.1//EN" "http://www.w3.org/Graphics/SVG/1.1/DTD/svg11.dtd"><svg t="1747271587039" class="icon" viewBox="0 0 1024 1024" version="1.1" xmlns="http://www.w3.org/2000/svg" p-id="15263" xmlns:xlink="http://www.w3.org/1999/xlink" width="200" height="200"><path d="M539.648 700.928H148.48c-22.016 0-39.936-17.92-39.936-39.936s17.92-39.936 39.936-39.936h391.168c22.016 0 39.936 17.92 39.936 39.936 0 22.528-17.92 39.936-39.936 39.936z" fill="#E3EEFF" p-id="15264"></path><path d="M541.184 842.24h-5.632c-38.912 0-70.656-31.744-70.656-70.656 0-38.912 31.744-70.656 70.656-70.656h5.632v-79.36H175.104v79.36H308.224c38.912 0 70.656 31.744 70.656 70.656 0 38.912-31.744 70.656-70.656 70.656h-133.12V921.6h366.08v-79.36z" fill="#E3EEFF" p-id="15265"></path><path d="M563.2 501.248c0-14.336-11.264-26.112-25.6-26.624H274.944c-14.848 0-26.624 11.776-26.624 26.624s11.776 26.624 26.624 26.624H381.952c26.112 0 47.104 20.992 47.104 47.104s-20.992 47.104-47.104 47.104H292.864v53.248H537.6v-53.248h-4.096c-26.112 0-47.104-20.992-47.104-47.104s20.992-47.104 47.104-47.104h4.096c13.824-0.512 25.6-12.288 25.6-26.624zM709.632 842.24H148.48c-22.016 0-39.936 17.92-39.936 39.936s17.92 39.936 39.936 39.936h561.152v-79.872zM723.968 842.24h33.792V921.6h-33.792zM798.72 842.24h21.504V921.6H798.72zM881.664 842.24h-50.176V921.6h50.176c22.016 0 39.936-17.92 39.936-39.936s-17.92-39.424-39.936-39.424z" fill="#E3EEFF" p-id="15266"></path><path d="M515.072 202.752c-11.776 0-21.504-9.728-21.504-21.504 0-11.776 9.728-21.504 21.504-21.504 11.776 0 21.504 9.728 21.504 21.504 0 11.776-9.728 21.504-21.504 21.504z m0-33.792c-6.656 0-12.288 5.632-12.288 12.288 0 6.656 5.632 12.288 12.288 12.288s12.288-5.632 12.288-12.288c0-6.656-5.632-12.288-12.288-12.288z" fill="#2B77EF" p-id="15267"></path><path d="M831.488 153.088c-11.776 0-21.504-9.728-21.504-21.504 0-11.776 9.728-21.504 21.504-21.504 11.776 0 21.504 9.728 21.504 21.504 0.512 11.776-9.216 21.504-21.504 21.504z m0-33.792c-6.656 0-12.288 5.632-12.288 12.288s5.632 12.288 12.288 12.288 12.288-5.632 12.288-12.288-5.632-12.288-12.288-12.288zM141.312 520.704c-9.216 0-17.92-3.072-24.576-9.216-7.68-6.656-12.8-15.872-13.824-26.112-1.024-10.24 2.048-20.48 8.704-28.16 6.656-7.68 15.872-12.8 26.112-13.824 21.504-2.048 39.936 13.824 41.984 35.328 2.048 20.992-13.824 39.936-35.328 41.984h-3.072z m0-67.584h-2.56c-7.68 0.512-14.848 4.096-19.456 10.24-5.12 6.144-7.168 13.312-6.656 20.992 0.512 7.68 4.096 14.848 10.24 19.456 6.144 5.12 13.312 7.168 20.992 6.656 15.872-1.536 27.648-15.36 26.112-31.232-1.024-14.848-13.824-26.112-28.672-26.112z" fill="#82A0F6" p-id="15268"></path><path d="M779.264 383.488c-2.56 0-4.608-2.048-4.608-4.608v-29.696l-20.992 20.992c-2.048 2.048-5.12 2.048-6.656 0-2.048-2.048-2.048-5.12 0-6.656l20.992-20.992h-29.696c-2.56 0-4.608-2.048-4.608-4.608s2.048-4.608 4.608-4.608h29.696l-20.992-20.992c-2.048-2.048-2.048-5.12 0-6.656 2.048-2.048 5.12-2.048 6.656 0l20.992 20.992V296.96c0-2.56 2.048-4.608 4.608-4.608s4.608 2.048 4.608 4.608v29.696l20.992-20.992c2.048-2.048 5.12-2.048 6.656 0 2.048 2.048 2.048 5.12 0 6.656l-20.992 20.992h29.696c2.56 0 4.608 2.048 4.608 4.608s-2.048 4.608-4.608 4.608h-29.696l20.992 20.992c2.048 2.048 2.048 5.12 0 6.656-2.048 2.048-5.12 2.048-6.656 0l-20.992-20.992V378.88c0 2.56-2.048 4.608-4.608 4.608z" fill="#82A0F6" p-id="15269"></path><path d="M239.616 193.536c-2.56 0-4.608-2.048-4.608-4.608v-29.696l-20.992 20.992c-2.048 2.048-5.12 2.048-6.656 0-2.048-2.048-2.048-5.12 0-6.656l20.992-20.992h-29.696c-2.56 0-4.608-2.048-4.608-4.608s2.048-4.608 4.608-4.608h29.696l-20.992-20.992c-2.048-2.048-2.048-5.12 0-6.656 2.048-2.048 5.12-2.048 6.656 0l20.992 20.992v-29.696c0-2.56 2.048-4.608 4.608-4.608s4.608 2.048 4.608 4.608v29.696l20.992-20.992c2.048-2.048 5.12-2.048 6.656 0 2.048 2.048 2.048 5.12 0 6.656L250.88 143.36h29.696c2.56 0 4.608 2.048 4.608 4.608s-2.048 4.608-4.608 4.608H250.88l20.992 20.992c2.048 2.048 2.048 5.12 0 6.656-2.048 2.048-5.12 2.048-6.656 0l-20.992-20.992v29.696c0.512 2.56-2.048 4.608-4.608 4.608z" fill="#82A0F6" p-id="15270"></path><path d="M863.232 763.392h-39.936c-2.56 0-4.608-2.048-4.608-4.608s2.048-4.608 4.608-4.608h39.936c2.56 0 4.608 2.048 4.608 4.608s-2.048 4.608-4.608 4.608z" fill="#82A0F6" p-id="15271"></path><path d="M843.264 783.36c-2.56 0-4.608-2.048-4.608-4.608v-39.936c0-2.56 2.048-4.608 4.608-4.608s4.608 2.048 4.608 4.608v39.936c0 2.56-2.048 4.608-4.608 4.608z" fill="#82A0F6" p-id="15272"></path><path d="M856.064 520.704c0 18.944-12.8 33.792-28.672 33.792 15.872 0 28.672 15.36 28.672 33.792 0-18.944 12.8-33.792 28.672-33.792-15.872 0-28.672-15.36-28.672-33.792z" fill="#76A6EF" p-id="15273"></path><path d="M770.56 872.448h-312.32c-10.752 0-19.456-8.704-19.456-19.456V468.48h284.16c36.864 0 66.56 29.696 66.56 66.56v318.464c0.512 10.24-8.192 18.944-18.944 18.944z" fill="#ABCDFF" p-id="15274"></path><path d="M723.456 468.48h-46.08c36.864 0 66.56 29.696 66.56 66.56v318.464c0 10.752-8.704 19.456-19.456 19.456h46.08c10.752 0 19.456-8.704 19.456-19.456v-318.464c0-36.864-29.696-66.56-66.56-66.56z" fill="#76A6EF" p-id="15275"></path><path d="M770.56 879.616h-312.32c-14.848 0-26.624-11.776-26.624-26.624V460.8h291.84c40.96 0 73.728 33.28 73.728 73.728v318.464c0 14.848-11.776 26.624-26.624 26.624zM446.464 475.648v377.344c0 6.656 5.12 11.776 11.776 11.776h312.32c6.656 0 11.776-5.12 11.776-11.776v-318.464c0-32.768-26.624-59.392-59.392-59.392h-276.48z" fill="#2B77EF" p-id="15276"></path><path d="M237.056 872.448h312.32c10.752 0 19.456-8.704 19.456-19.456V468.48H284.16c-36.864 0-66.56 29.696-66.56 66.56v318.464c0 10.24 8.704 18.944 19.456 18.944z" fill="#C7DDFF" p-id="15277"></path><path d="M252.416 852.992v-318.464c0-36.864 29.696-66.56 66.56-66.56h-34.816c-36.864 0-66.56 29.696-66.56 66.56v318.464c0 10.752 8.704 19.456 19.456 19.456h34.816c-10.752 0-19.456-8.704-19.456-19.456z" fill="#FFFFFF" p-id="15278"></path><path d="M549.376 879.616h-312.32c-14.848 0-26.624-11.776-26.624-26.624v-318.464c0-40.448 33.28-73.728 73.728-73.728h291.84v392.192c0 14.848-12.288 26.624-26.624 26.624zM284.16 475.648c-32.768 0-59.392 26.624-59.392 59.392v318.464c0 6.656 5.12 11.776 11.776 11.776h312.32c6.656 0 11.776-5.12 11.776-11.776V475.648h-276.48z" fill="#2B77EF" p-id="15279"></path><path d="M665.6 872.448H333.312c-10.752 0-19.456-8.704-19.456-19.456V321.024c0-33.792 27.136-60.928 60.928-60.928h249.344c33.792 0 60.928 27.136 60.928 60.928v531.968c0 10.752-8.704 19.456-19.456 19.456z" fill="#C7DDFF" p-id="15280"></path><path d="M624.128 260.096h-46.592c33.792 0 60.928 27.136 60.928 60.928v551.424h27.136c10.752 0 19.456-8.704 19.456-19.456V321.024c0-33.792-27.648-60.928-60.928-60.928z" fill="#76A6EF" p-id="15281"></path><path d="M413.184 260.096h-38.4c-33.792 0-60.928 27.136-60.928 60.928v531.968c0 10.752 8.704 19.456 19.456 19.456h19.456V321.024c-0.512-33.792 27.136-60.928 60.416-60.928z" fill="#FFFFFF" p-id="15282"></path><path d="M313.856 572.416c-4.096 0-7.168-3.072-7.168-7.168V527.36c0-4.096 3.072-7.168 7.168-7.168 4.096 0 7.168 3.072 7.168 7.168v37.888c0.512 4.096-3.072 7.168-7.168 7.168z" fill="#2B77EF" p-id="15283"></path><path d="M599.552 872.96H537.6c-5.12 0-9.216-4.096-9.216-9.216v-87.552c0-5.12 4.096-9.216 9.216-9.216h61.952c5.12 0 9.216 4.096 9.216 9.216v87.552c0 5.12-4.096 9.216-9.216 9.216zM461.824 872.96H399.872c-5.12 0-9.216-4.096-9.216-9.216v-87.552c0-5.12 4.096-9.216 9.216-9.216h61.952c5.12 0 9.216 4.096 9.216 9.216v87.552c0 5.12-4.096 9.216-9.216 9.216z" fill="#A4C4F4" p-id="15284"></path><path d="M665.6 879.616H333.312c-14.848 0-26.624-11.776-26.624-26.624v-249.344c0-4.096 3.072-7.168 7.168-7.168 4.096 0 7.168 3.072 7.168 7.168v249.344c0 6.656 5.12 11.776 11.776 11.776h332.8c6.656 0 11.776-5.12 11.776-11.776V321.024c0-29.696-24.064-53.248-53.248-53.248H374.784c-29.696 0-53.248 24.064-53.248 53.248v153.6c0 4.096-3.072 7.168-7.168 7.168-4.096 0-7.168-3.072-7.168-7.168v-153.6c0-37.376 30.72-68.096 68.096-68.096H624.64c37.376 0 68.096 30.72 68.096 68.096v531.968c-0.512 14.848-12.288 26.624-27.136 26.624z" fill="#2B77EF" p-id="15285"></path><path d="M463.872 440.32H406.016c-4.608 0-8.704-4.096-8.704-8.704V373.76c0-4.608 4.096-8.704 8.704-8.704h57.344c4.608 0 8.704 4.096 8.704 8.704v57.344c0.512 5.12-3.584 9.216-8.192 9.216zM592.384 440.32h-57.344c-4.608 0-8.704-4.096-8.704-8.704V373.76c0-4.608 4.096-8.704 8.704-8.704h57.344c4.608 0 8.704 4.096 8.704 8.704v57.344c0.512 5.12-3.584 9.216-8.704 9.216z" fill="#76A6EF" p-id="15286"></path><path d="M463.872 572.928H406.016c-4.608 0-8.704-4.096-8.704-8.704V506.368c0-4.608 4.096-8.704 8.704-8.704h57.344c4.608 0 8.704 4.096 8.704 8.704v57.344c0.512 5.12-3.584 9.216-8.192 9.216z" fill="#76A6EF" p-id="15287"></path><path d="M592.384 572.928h-57.344c-4.608 0-8.704-4.096-8.704-8.704V506.368c0-4.608 4.096-8.704 8.704-8.704h57.344c4.608 0 8.704 4.096 8.704 8.704v57.344c0.512 5.12-3.584 9.216-8.704 9.216z" fill="#F68282" p-id="15288"></path><path d="M463.872 705.536H406.016c-4.608 0-8.704-4.096-8.704-8.704v-57.344c0-4.608 4.096-8.704 8.704-8.704h57.344c4.608 0 8.704 4.096 8.704 8.704v57.344c0.512 4.608-3.584 8.704-8.192 8.704zM592.384 705.536h-57.344c-4.608 0-8.704-4.096-8.704-8.704v-57.344c0-4.608 4.096-8.704 8.704-8.704h57.344c4.608 0 8.704 4.096 8.704 8.704v57.344c0.512 4.608-3.584 8.704-8.704 8.704z" fill="#76A6EF" p-id="15289"></path><path d="M812.032 888.832h-609.28c-8.704 0-15.872-7.168-15.872-15.872 0-8.704 7.168-15.872 15.872-15.872h609.28c8.704 0 15.872 7.168 15.872 15.872 0 8.704-7.168 15.872-15.872 15.872z" fill="#2B77EF" p-id="15290"></path></svg>