<svg viewBox="0 0 1024 1024" xmlns="http://www.w3.org/2000/svg">
  <path d="M512 85.333333c235.648 0 426.666667 191.061333 426.666667 426.666667 0 235.690667-191.018667 426.666667-426.666667 426.666667-235.605333 0-426.666667-190.976-426.666667-426.666667C85.333333 276.437333 276.394667 85.333333 512 85.333333z m0 64a362.666667 362.666667 0 1 0 0 725.333334 362.666667 362.666667 0 0 0 0-725.333334z m-181.333333 330.666667h362.666666a32 32 0 0 1 4.352 63.701333l-4.352 0.298667h-362.666666a32 32 0 0 1-4.352-63.701333l4.352-0.298667h362.666666-362.666666z" fill="currentColor"/>
</svg>