<svg viewBox="0 0 309.13 309.13" xmlns="http://www.w3.org/2000/svg" fill="currentColor">
  <path d="M89.68,0c16.93,12.78,35.09,21,56.38,20.55,2.3,0,4.59-.06,6.88.07a64.3,64.3,0,0,0,35.55-7.85c4.37-2.42,8.6-2.67,13.2-1.85a8.08,8.08,0,0,1,5.09,2.86c12,14.42,27.73,20.48,46.19,20.6,8.12,0,16-.64,23.46-4.15a13.82,13.82,0,0,1,5.81-1c2.25,0,4.13,2.72,3.63,4.92a26.24,26.24,0,0,1-1.32,3.12c-4.65,12.17-1.88,23.2,5.92,33,2.17,2.71,6.09,4.07,9.32,5.86,2.49,1.38,5.26,2.26,7.68,3.74a3.54,3.54,0,0,1,.19,5.87,20.31,20.31,0,0,1-2.87,1.84c-14.12,7.91-20.69,21-23.88,36-1.13,5.36.93,10.75,2.65,15.94a57.2,57.2,0,0,1,2.28,7.35c.63,3.33-1.25,5.55-4.74,5.64a33.64,33.64,0,0,1-6.76-.74c-19-3.33-36.39.36-51.73,12.4-2.24,1.76-4.26,3.83-6.44,5.67-2.93,2.47-5.43,2.7-8.59.86a15.43,15.43,0,0,1-2.1-1.5c-6.69-5.62-14.73-7.23-23.14-8-13.19-1.23-25.78,1.36-37.68,6.62-6.7,3-11.49.84-16.33-3.12-2.65-2.18-5.15-4.55-7.64-6.91a24.73,24.73,0,0,0-12.93-6.4c-15.06-2.69-30.13-3.61-45.11.76-4.93,1.44-10,2.46-14.87,4.11s-8.33-.65-11.48-3.67c-.87-.83-1-2.56-1.19-3.92-.87-5.65-1.52-11.33-2.46-17a24.82,24.82,0,0,0-12.9-18.3c-4.95-2.78-9.12-7.08-15.62-7.77L0,98c3.06-2.94,5.88-5.71,8.77-8.4,10.63-9.91,14.4-22.38,13.5-36.5A10.73,10.73,0,0,0,20,47.79c-2.75-3.66-2.57-7.3-.65-11.71,6.28.84,12.44,1.81,18.63,2.47C48,39.61,57.26,37,66.25,32.92A36.86,36.86,0,0,0,80.61,21.1c1.8-2.39,3.17-5,3.15-7.8,0-4.54,2.41-8.06,4-11.93C88,.93,88.7.7,89.68,0Z"/>
</svg>